<?xml version="1.0" encoding="UTF-8"?>
<svg version="1.1" xmlns="http://www.w3.org/2000/svg" width="1024" height="1024">
<path d="M0 0 C337.92 0 675.84 0 1024 0 C1024 337.92 1024 675.84 1024 1024 C686.08 1024 348.16 1024 0 1024 C0 686.08 0 348.16 0 0 Z " fill="#00BE62" transform="translate(0,0)"/>
<path d="M0 0 C1.53495621 -0.00101212 1.53495621 -0.00101212 3.10092163 -0.00204468 C30.371412 0.02629669 56.77103869 2.20101311 83.4375 8.25 C84.61119141 8.50789307 84.61119141 8.50789307 85.80859375 8.77099609 C132.04466044 19.12466076 177.69396443 39.07495674 216.4375 66.25 C216.97213867 66.62157227 217.50677734 66.99314453 218.05761719 67.37597656 C227.10960003 73.67681607 235.88183093 80.290717 244.4375 87.25 C244.97826172 87.68489746 245.51902344 88.11979492 246.07617188 88.56787109 C255.72979753 96.39333414 264.51444822 105.11774381 273.3125 113.875 C273.89454193 114.4517749 274.47658386 115.0285498 275.07626343 115.62280273 C282.33874222 122.83445378 289.07543979 130.21644129 295.4375 138.25 C296.48518039 139.49830004 297.53797313 140.74234159 298.59765625 141.98046875 C340.75455617 191.88411888 368.58609249 257.08890516 378.6875 321.375 C378.91397217 322.80030029 378.91397217 322.80030029 379.14501953 324.25439453 C381.96364478 343.39371798 382.81607312 362.55232418 382.75 381.875 C382.74850952 382.96262634 382.74701904 384.05025269 382.7454834 385.1708374 C382.70322399 402.39028483 381.9808769 419.19824578 379.4375 436.25 C379.29296387 437.27512695 379.14842773 438.30025391 378.99951172 439.35644531 C377.99978686 446.36005493 376.8024483 453.30859627 375.4375 460.25 C375.16244629 461.66104004 375.16244629 461.66104004 374.88183594 463.10058594 C368.98470553 492.32680414 358.46315568 521.46409183 345.4375 548.25 C344.94314453 549.26771484 344.44878906 550.28542969 343.93945312 551.33398438 C330.51415316 578.64168784 314.09098141 604.01367154 294.4375 627.25 C293.67824219 628.19359375 292.91898438 629.1371875 292.13671875 630.109375 C285.07590638 638.76377819 277.24812888 646.65581239 269.375 654.5625 C268.82055206 655.12212433 268.26610413 655.68174866 267.69485474 656.2583313 C260.59891266 663.40639454 253.33860243 669.99032087 245.4375 676.25 C244.40975274 677.11315348 243.38634552 677.98155827 242.37109375 678.859375 C209.16245455 707.33877137 168.0736246 730.13301639 126.49365234 743.56640625 C123.58461638 744.5335519 120.73671891 745.65177577 117.875 746.75 C98.41569894 753.66077981 78.08985444 757.54998937 57.73925781 760.73291016 C55.5544542 761.07507328 53.37141962 761.42874882 51.19042969 761.79443359 C34.39816963 764.54913607 17.60065031 764.52585577 0.625 764.5625 C-0.61706207 764.56578308 -1.85912415 764.56906616 -3.13882446 764.57244873 C-22.95095021 764.58937576 -42.01686405 763.46928122 -61.5625 760.25 C-63.87353727 759.9077676 -66.18473304 759.56660364 -68.49609375 759.2265625 C-72.89659358 758.5479264 -77.14919955 757.71911783 -81.4375 756.5 C-85.85259313 755.26630458 -90.262558 754.06509634 -94.71484375 752.97265625 C-151.9829309 738.80649876 -207.74325723 710.39061283 -251.32421875 670.3046875 C-253.43289527 668.36897397 -255.58036328 666.49180024 -257.75 664.625 C-261.53067099 661.33215753 -265.05472551 657.82871824 -268.5625 654.25 C-271.14394649 651.65566776 -273.73871416 649.0782158 -276.359375 646.5234375 C-281.98542659 641.0213995 -287.27843607 635.43621921 -292.171875 629.2578125 C-293.92411857 627.05319232 -295.69763317 624.89103992 -297.515625 622.7421875 C-306.42026051 612.14422488 -314.09830932 600.89715133 -321.5625 589.25 C-321.96839355 588.61964844 -322.37428711 587.98929688 -322.79248047 587.33984375 C-338.47956085 562.85407954 -350.96755489 536.67311714 -360.5625 509.25 C-360.91296387 508.26676758 -361.26342773 507.28353516 -361.62451172 506.27050781 C-369.26522667 484.76096171 -374.27982464 463.13513534 -377.875 440.625 C-378.06899384 439.42094513 -378.06899384 439.42094513 -378.26690674 438.19256592 C-381.32281531 419.03608748 -381.83379012 400.12564595 -381.875 380.75 C-381.87795074 379.52989227 -381.88090149 378.30978455 -381.88394165 377.05270386 C-381.89435469 358.11294525 -381.0233776 339.89542599 -377.5625 321.25 C-377.33780029 319.99324463 -377.11310059 318.73648926 -376.8815918 317.44165039 C-375.19158202 308.08667836 -373.2247462 298.80526762 -371 289.5625 C-370.83120331 288.86088745 -370.66240662 288.1592749 -370.48849487 287.43640137 C-354.69894368 222.46689452 -319.70977474 159.87148082 -271.5625 113.25 C-268.9661818 110.67037838 -266.39079502 108.0738671 -263.8359375 105.453125 C-257.41962496 98.8922164 -250.77465491 92.94128936 -243.5625 87.25 C-242.45404461 86.34189608 -241.34735813 85.4316299 -240.2421875 84.51953125 C-204.24948413 54.96648029 -162.55490418 33.16490201 -118.5625 18.25 C-117.15339355 17.77216064 -117.15339355 17.77216064 -115.71582031 17.28466797 C-77.99481787 4.7042766 -39.62348196 0.0237534 0 0 Z " fill="#FEFEFE" transform="translate(511.5625,129.75)"/>
<path d="M0 0 C1.0578067 0.00126892 2.1156134 0.00253784 3.20547485 0.00384521 C65.81141426 0.1466747 125.86819168 13.23312712 182.5 40.1875 C183.43263672 40.62771484 184.36527344 41.06792969 185.32617188 41.52148438 C204.94542721 50.84777855 223.67043428 61.78098727 241.5 74.1875 C242.06025879 74.57437988 242.62051758 74.96125977 243.19775391 75.35986328 C256.68286126 84.70048297 269.98902651 94.55680273 281.9453125 105.80859375 C283.94927623 107.67467007 285.9795703 109.45916583 288.05859375 111.23828125 C293.20791069 115.72766116 298.03528562 120.53673125 302.86303711 125.36523438 C304.42608734 126.92610327 305.99697365 128.47877888 307.56835938 130.03125 C313.22739068 135.65896175 318.49816885 141.41568971 323.47851562 147.66699219 C325.32677769 149.97151605 327.23114404 152.19694685 329.19140625 154.40625 C345.15224905 172.49000869 358.60047878 193.25088534 370.5 214.1875 C371.15548828 215.32445312 371.15548828 215.32445312 371.82421875 216.484375 C385.85875797 240.93907896 396.58248914 266.4835041 405.5 293.1875 C405.90919678 294.40663086 405.90919678 294.40663086 406.32666016 295.65039062 C411.79274829 312.08919916 415.83229066 328.82923614 419.04663086 345.83837891 C419.35310433 347.4263637 419.6719726 349.0119987 420.00219727 350.59521484 C421.32251625 356.92998355 422.26418859 363.26721773 423.0625 369.6875 C423.18818359 370.63625 423.31386719 371.585 423.44335938 372.5625 C425.50757369 388.98975525 425.66255247 405.44131294 425.63037109 421.97387695 C425.62500179 425.24890761 425.63035615 428.52380154 425.63671875 431.79882812 C425.64267883 447.39011366 425.32139661 462.84534926 423.1875 478.3125 C423.05778809 479.2720459 422.92807617 480.2315918 422.79443359 481.22021484 C416.3812201 527.49935006 402.65267048 571.04068566 382.5 613.1875 C382.09313965 614.05036621 381.6862793 614.91323242 381.26708984 615.80224609 C369.72679263 640.20078686 354.95365508 662.83394086 338.5 684.1875 C338.07219238 684.74679199 337.64438477 685.30608398 337.20361328 685.88232422 C331.73225257 693.02444974 326.12347498 699.908532 319.984375 706.4921875 C318.09545571 708.54148673 316.27838551 710.6134589 314.46875 712.73046875 C309.84106075 718.03598862 304.87101914 723.00252429 299.89501953 727.9777832 C298.26172552 729.61325882 296.6366153 731.25657708 295.01171875 732.90039062 C288.48553899 739.46118547 281.76323373 745.44082346 274.5 751.1875 C273.4375626 752.07460246 272.37917422 752.96662126 271.328125 753.8671875 C253.77162836 768.8168104 234.44702285 781.66153211 214.5 793.1875 C213.86288086 793.5602002 213.22576172 793.93290039 212.56933594 794.31689453 C147.47604839 832.2479166 74.9835948 850.3085049 0 850.375 C-1.02198486 850.37617828 -2.04396973 850.37735657 -3.09692383 850.37857056 C-21.23424889 850.3762019 -39.19947131 849.93081708 -57.1875 847.4375 C-59.11130493 847.17308105 -59.11130493 847.17308105 -61.07397461 846.90332031 C-107.6184056 840.28258948 -151.54779225 825.07157237 -193.5 804.1875 C-194.3465918 803.76887695 -195.19318359 803.35025391 -196.06542969 802.91894531 C-227.15310505 787.44481094 -255.50367967 767.10401015 -281.5 744.1875 C-282.233396 743.54312988 -282.96679199 742.89875977 -283.72241211 742.23486328 C-290.02217056 736.63885143 -296.05817291 730.81557204 -302.01391602 724.85888672 C-303.55923066 723.3157647 -305.11240446 721.78085694 -306.66601562 720.24609375 C-312.33664718 714.60653261 -317.60872785 708.85234656 -322.57861328 702.57641602 C-324.41110597 700.29802453 -326.32472804 698.14308793 -328.3125 696 C-369.81952241 649.5186586 -399.09570073 586.36136136 -413.5 526.1875 C-413.6748291 525.4646582 -413.8496582 524.74181641 -414.02978516 523.99707031 C-418.49292457 505.34976429 -422.00150156 486.3165461 -423.5 467.1875 C-423.58830078 466.06384033 -423.67660156 464.94018066 -423.76757812 463.7824707 C-424.63119146 451.71690112 -424.65279337 439.65878297 -424.63037109 427.56713867 C-424.62500374 424.1273967 -424.63035204 420.68778494 -424.63671875 417.24804688 C-424.64244831 401.55082009 -424.19051613 386.08757425 -422.1875 370.5 C-422.05778809 369.48381592 -421.92807617 368.46763184 -421.79443359 367.4206543 C-420.44891371 357.25494325 -418.64246024 347.21375401 -416.5 337.1875 C-416.23364746 335.93453125 -416.23364746 335.93453125 -415.96191406 334.65625 C-402.03071751 270.28965205 -372.9140829 208.4618797 -330.78466797 157.74414062 C-329.59023007 156.29683237 -328.42096299 154.82885166 -327.25390625 153.359375 C-317.88826858 141.60507011 -307.32216839 130.91912784 -296.74838257 120.26065063 C-295.35600132 118.85637299 -293.96760714 117.44814553 -292.5793457 116.03979492 C-286.53167007 109.98442014 -280.18635191 104.52170042 -273.5 99.1875 C-272.47257574 98.32396208 -271.44916898 97.45556748 -270.43359375 96.578125 C-248.94342659 78.14837288 -224.57318906 62.94440716 -199.77001953 49.42675781 C-198.30254463 48.62562826 -196.83721332 47.82055401 -195.37451172 47.01074219 C-174.9961519 35.7306385 -153.49706397 27.73158098 -131.5 20.1875 C-130.74477051 19.92485352 -129.98954102 19.66220703 -129.21142578 19.39160156 C-124.68435343 17.82864274 -120.11278288 16.46938933 -115.5 15.1875 C-114.47213379 14.89665527 -113.44426758 14.60581055 -112.38525391 14.30615234 C-95.8017042 9.68262282 -79.22316762 6.24274303 -62.1875 3.75 C-60.92113205 3.56173141 -60.92113205 3.56173141 -59.62918091 3.36965942 C-39.77357335 0.45577418 -20.04518386 -0.02487755 0 0 Z M-48.5 45.1875 C-49.7070459 45.33227783 -49.7070459 45.33227783 -50.93847656 45.47998047 C-56.49958217 46.18349383 -61.99572717 47.13258213 -67.5 48.1875 C-68.51191406 48.37795898 -69.52382813 48.56841797 -70.56640625 48.76464844 C-88.97228595 52.29045007 -106.75224947 57.1850336 -124.5 63.1875 C-125.53576172 63.53651367 -126.57152344 63.88552734 -127.63867188 64.24511719 C-172.96789032 79.77266013 -215.78963445 105.33209958 -251.5 137.1875 C-252.90378906 138.425 -252.90378906 138.425 -254.3359375 139.6875 C-259.2249191 144.03326142 -263.92416091 148.51521466 -268.5 153.1875 C-271.08142124 155.78184989 -273.67621799 158.35928792 -276.296875 160.9140625 C-281.92635407 166.41945243 -287.22273403 172.00755375 -292.1171875 178.19140625 C-293.84208273 180.36024992 -295.58699759 182.4817899 -297.3828125 184.58984375 C-331.53300142 225.01371497 -355.66328965 275.3380679 -369.5 326.1875 C-369.7484668 327.09274414 -369.99693359 327.99798828 -370.25292969 328.93066406 C-377.07189322 354.22737667 -381.64107392 381.22094395 -381.66796875 407.45703125 C-381.67129715 408.6138591 -381.67462555 409.77068695 -381.67805481 410.96257019 C-381.68309482 413.40399786 -381.68546404 415.84543236 -381.68530273 418.28686523 C-381.68747108 421.95113057 -381.70560848 425.61508537 -381.72460938 429.27929688 C-381.75933925 443.36709591 -381.26346652 457.20601026 -379.5 471.1875 C-379.36614395 472.25407333 -379.36614395 472.25407333 -379.22958374 473.3421936 C-373.95762447 514.28078726 -362.57652473 554.01500418 -344.5 591.1875 C-343.7584668 592.71407227 -343.7584668 592.71407227 -343.00195312 594.27148438 C-332.44528179 615.74425974 -320.14998776 636.25131928 -305.5 655.1875 C-305.06268555 655.76081055 -304.62537109 656.33412109 -304.17480469 656.92480469 C-294.11782767 670.10670673 -283.41639609 682.64873618 -271.5 694.1875 C-268.9769009 696.69457942 -266.47229833 699.21597835 -263.9921875 701.765625 C-258.67184818 707.19713559 -253.24819153 712.21490744 -247.2890625 716.95703125 C-244.45174421 719.22609111 -241.69819637 721.5760779 -238.9375 723.9375 C-197.23362494 758.61925728 -146.35147399 782.73138721 -94.0625 796.25 C-93.14146484 796.49298828 -92.22042969 796.73597656 -91.27148438 796.98632812 C-78.50856091 800.30697833 -65.77337295 802.71677836 -52.6875 804.3125 C-51.3339162 804.48253106 -49.98040018 804.65310263 -48.62695312 804.82421875 C-44.91904532 805.28885051 -41.21080504 805.74660735 -37.5 806.1875 C-36.83857498 806.2771402 -36.17714996 806.3667804 -35.49568176 806.45913696 C-28.94780266 807.29290064 -22.45747419 807.33207755 -15.86328125 807.3203125 C-14.06772041 807.32174759 -14.06772041 807.32174759 -12.23588562 807.32321167 C-9.71202542 807.32388954 -7.18816345 807.32206274 -4.66430664 807.31787109 C-0.8419188 807.31254102 2.98035027 807.31781733 6.80273438 807.32421875 C9.26822942 807.32355744 11.7337244 807.32227519 14.19921875 807.3203125 C15.32365891 807.32233673 16.44809906 807.32436096 17.60661316 807.32644653 C28.41297284 807.29522596 39.1557924 806.73652258 49.828125 804.98828125 C50.53641953 804.87315186 51.24471405 804.75802246 51.97447205 804.6394043 C54.23454009 804.26830848 56.49241603 803.88590487 58.75 803.5 C59.53645905 803.36645111 60.32291809 803.23290222 61.13320923 803.0953064 C93.66984291 797.5406919 125.46546645 789.11731958 155.5 775.1875 C156.50659668 774.72649902 157.51319336 774.26549805 158.55029297 773.79052734 C192.21779993 758.29090019 224.68432179 738.70452642 252.0234375 713.453125 C253.38201073 712.21026621 254.74836261 710.9750909 256.14770508 709.77832031 C261.98174125 704.78523306 267.43708448 699.43656303 272.86303711 694.00976562 C274.42608734 692.44889673 275.99697365 690.89622112 277.56835938 689.34375 C283.9973743 682.95056189 289.87457421 676.31147612 295.5 669.1875 C296.50094322 667.96761482 297.50446286 666.7498343 298.51171875 665.53515625 C310.42117284 650.98327161 321.27125358 635.57891249 330.5 619.1875 C330.95584473 618.38119141 331.41168945 617.57488281 331.88134766 616.74414062 C343.62298447 595.86840017 353.52372361 574.77909791 361.5 552.1875 C361.85336426 551.1984668 362.20672852 550.20943359 362.57080078 549.19042969 C369.80625548 528.81629743 374.87545598 508.28309623 378.25 486.9375 C378.44875732 485.68453125 378.64751465 484.4315625 378.85229492 483.140625 C381.59557714 464.92889976 382.83410391 446.9210079 382.76074219 428.50439453 C382.75003112 425.32174541 382.76070893 422.13966338 382.7734375 418.95703125 C382.78322381 404.94027049 382.0031886 391.12224139 380.5 377.1875 C380.36996582 375.98061523 380.23993164 374.77373047 380.10595703 373.53027344 C371.65185724 302.80031508 340.01602102 236.1831779 295.5 181.1875 C295.06220215 180.6423877 294.6244043 180.09727539 294.17333984 179.53564453 C286.35065728 169.88699308 277.62828334 161.10656043 268.875 152.3125 C268.2982251 151.73045807 267.7214502 151.14841614 267.12719727 150.54873657 C259.90783552 143.27849274 252.55391469 136.53524351 244.5 130.1875 C243.30286631 129.19908317 242.10842795 128.20738309 240.91796875 127.2109375 C225.83519621 114.77317498 209.47067524 103.87426212 192.5 94.1875 C191.83677734 93.80319824 191.17355469 93.41889648 190.49023438 93.02294922 C118.47787557 51.37301053 33.99453188 35.17724442 -48.5 45.1875 Z " fill="#222423" transform="translate(511.5,86.8125)"/>
<path d="M0 0 C0.75600494 0.00021149 1.51200989 0.00042297 2.29092407 0.00064087 C13.83748201 0.03291048 24.44865894 0.89180245 35.5 4.375 C36.72074219 4.69082031 37.94148437 5.00664062 39.19921875 5.33203125 C50.4612541 8.52752906 61.05561316 14.48100179 70.5 21.375 C70.83 22.035 71.16 22.695 71.5 23.375 C67.99357922 22.03254176 64.61698657 20.49568961 61.23706055 18.86230469 C38.79341621 8.0775115 10.38587112 4.0342141 -13.87109375 11.3984375 C-15.69659529 12.08209146 -17.51009518 12.80006449 -19.30078125 13.5703125 C-21.5 14.375 -21.5 14.375 -25.5 14.375 C-25.5 15.035 -25.5 15.695 -25.5 16.375 C-26.10585938 16.59414063 -26.71171875 16.81328125 -27.3359375 17.0390625 C-52.57252506 26.59014025 -71.78081433 46.404664 -83.01171875 70.63671875 C-84.29061685 73.8521187 -85.4058084 77.09242521 -86.5 80.375 C-86.96535156 81.56480469 -87.43070313 82.75460937 -87.91015625 83.98046875 C-96.42750359 107.12276743 -92.66666159 135.3180644 -82.5 157.375 C-78.39972819 165.69280408 -73.87150734 173.59778079 -67.71484375 180.578125 C-66.5 182.375 -66.5 182.375 -66.5 186.375 C-67.93359375 188.29443359 -67.93359375 188.29443359 -69.9375 190.2734375 C-70.66839844 191.00046875 -71.39929688 191.7275 -72.15234375 192.4765625 C-72.92707031 193.22679687 -73.70179688 193.97703125 -74.5 194.75 C-75.24378906 195.4925 -75.98757813 196.235 -76.75390625 197 C-81.38840903 201.56196273 -86.18246839 205.63135632 -91.5 209.375 C-101.86943524 198.71089664 -108.77297527 186.03175129 -114.5 172.375 C-114.86738281 171.51003906 -115.23476562 170.64507813 -115.61328125 169.75390625 C-117.86430285 164.04378581 -119.3388904 158.22442628 -120.6875 152.25 C-120.85459473 151.50983643 -121.02168945 150.76967285 -121.19384766 150.00708008 C-127.9420474 118.66026757 -121.47960884 85.47661633 -104.5 58.375 C-99.15494244 50.46698258 -93.03014601 43.31994658 -86.5 36.375 C-85.63568359 35.39660156 -85.63568359 35.39660156 -84.75390625 34.3984375 C-69.49882254 17.88625336 -47.94748105 7.78230984 -26.5 2.375 C-25.81228516 2.19404785 -25.12457031 2.0130957 -24.41601562 1.82666016 C-16.35060069 -0.0675931 -8.23529406 -0.0211831 0 0 Z " fill="#343434" transform="translate(334.5,396.625)"/>
<path d="M0 0 C-1.12148438 1.11761719 -1.12148438 1.11761719 -2.265625 2.2578125 C-3.82854899 3.82520198 -5.38508124 5.39916957 -6.921875 6.9921875 C-11.61198642 11.8226014 -16.59233326 15.99432093 -22 20 C-26.00610978 17.73567708 -29.95619709 15.41251304 -33.875 13 C-53.66909165 1.21217527 -76.43072069 -2.6631865 -98.93408203 3.02001953 C-110.5887366 6.37994519 -121.51205892 12.51303068 -131 20 C-131.74378906 20.56847656 -132.48757813 21.13695312 -133.25390625 21.72265625 C-148.44132588 34.16313389 -156.60387117 52.0861748 -160 71 C-160.33 71.99 -160.66 72.98 -161 74 C-161.22325814 76.05893621 -161.40705759 78.12233653 -161.5625 80.1875 C-161.64628906 81.27417969 -161.73007813 82.36085938 -161.81640625 83.48046875 C-161.87699219 84.31191406 -161.93757812 85.14335938 -162 86 C-162.66 85.67 -163.32 85.34 -164 85 C-165.28551263 57.194838 -154.85563013 31.92261821 -136.6328125 11.32421875 C-100.49997225 -26.76334893 -41.86262611 -30.86342631 0 0 Z " fill="#228E5D" transform="translate(412,431)"/>
<path d="M0 0 C0 3.76170431 -0.92884374 4.47026458 -3.3125 7.3125 C-6.69895792 11.42036885 -10.03285962 15.55695356 -13.3125 19.75 C-14.25770758 20.95450942 -15.20302129 22.15893557 -16.1484375 23.36328125 C-17.55677462 25.15898308 -18.96473207 26.95498005 -20.37207031 28.75146484 C-25.63168408 35.46534097 -30.91529511 42.15806556 -36.25 48.8125 C-41.71577872 55.61406913 -41.71577872 55.61406913 -47.07421875 62.5 C-48.69708369 64.60676179 -50.35152357 66.67915852 -52.01953125 68.75 C-59.45868573 77.81696699 -59.45868573 77.81696699 -62.6015625 88.87890625 C-63.35065925 92.86674482 -65.93881916 95.48807409 -69 98 C-72.68030803 99.84015401 -74.67279317 100.03204603 -78.7890625 99.62890625 C-81.3659428 99.61029315 -82.63103186 99.74682343 -84.77294922 101.21655273 C-86.46577576 102.90305332 -87.99056348 104.64785978 -89.5 106.5 C-90.304375 107.43005859 -90.304375 107.43005859 -91.125 108.37890625 C-92.43711169 109.90189303 -93.72146878 111.44871545 -95 113 C-98.23861303 111.55575365 -100.61969163 109.74227753 -103.25 107.375 C-104.30960937 106.42753906 -104.30960937 106.42753906 -105.390625 105.4609375 C-105.92171875 104.97882813 -106.4528125 104.49671875 -107 104 C-105.46073405 100.13864142 -103.03309599 98.14113563 -99.9375 95.4375 C-96.13128118 91.75107634 -94.38004491 89.59136905 -94.125 84.25 C-94.12113281 83.33476563 -94.11726563 82.41953125 -94.11328125 81.4765625 C-93.88291807 76.44034673 -90.64322034 73.68916465 -87.375 70.1875 C-84.62130347 67.96229068 -82.62164748 67.7733073 -79.125 67.6875 C-74.75558888 67.45856379 -72.92264945 66.5126391 -69.875 63.375 C-68.58138756 61.91839239 -67.28969289 60.46007915 -66 59 C-64.72976439 57.8304538 -63.43801093 56.68381133 -62.125 55.5625 C-55.25080322 49.6378518 -48.55465351 43.51708944 -41.875 37.375 C-37.96015039 33.77600336 -34.0097238 30.226275 -29.9921875 26.7421875 C-27.63979365 24.68499601 -25.31965034 22.59403085 -23 20.5 C-19.39351727 17.24536924 -15.7570326 14.03020257 -12.09375 10.83984375 C-8.02704588 7.26630337 -4.01654397 3.6297047 0 0 Z " fill="#2A7759" transform="translate(410,440)"/>
<path d="M0 0 C5.40375 -0.12375 10.8075 -0.2475 16.375 -0.375 C18.05899902 -0.42962402 19.74299805 -0.48424805 21.47802734 -0.54052734 C31.43239109 -0.72783168 38.10297247 0.55816961 45.68261719 7.55273438 C49.67848975 11.9425662 49.42235846 17.46267842 49.3125 23.05859375 C48.71150774 28.71543336 46.28032157 31.68990351 42.3125 35.75 C33.19667644 42.53647306 22.8308558 41.24068568 12 41 C12 46.61 12 52.22 12 58 C8.04 58 4.08 58 0 58 C0 38.86 0 19.72 0 0 Z " fill="#141717" transform="translate(384,509)"/>
<path d="M0 0 C4.38798426 3.15934866 7.72490697 6.25950356 9.375 11.5 C10.28449303 18.51374804 10.47513818 25.61558518 6.70703125 31.8203125 C2.67985059 36.8985755 -1.3280719 39.80377952 -7.625 41.5 C-14.7497649 42.1731373 -21.48939241 42.42678885 -27.625 38.5 C-32.59132306 33.78862165 -36.14987929 29.40599236 -36.99609375 22.44921875 C-37.14637969 15.06752723 -36.6837142 10.06458562 -31.625 4.5 C-23.40825739 -3.86347015 -10.54735884 -5.86140875 0 0 Z " fill="#1F9862" transform="translate(729.625,525.5)"/>
<path d="M0 0 C0.84433594 0.00241699 1.68867188 0.00483398 2.55859375 0.00732422 C8.33827178 0.17843311 12.42395529 1.04688545 17.09375 4.6640625 C21.195033 9.54941431 22.05580297 13.87058607 21.98046875 20.1484375 C21.97622391 20.85022125 21.97197906 21.552005 21.96760559 22.27505493 C21.95093599 24.4962756 21.91330872 26.71655788 21.875 28.9375 C21.85993788 30.45180973 21.84625216 31.96613381 21.83398438 33.48046875 C21.80107183 37.17477932 21.74937259 40.86854793 21.6875 44.5625 C18.0575 44.5625 14.4275 44.5625 10.6875 44.5625 C10.6875 43.5725 10.6875 42.5825 10.6875 41.5625 C9.615 42.0575 8.5425 42.5525 7.4375 43.0625 C1.92686592 45.11182833 -3.50746274 45.29731484 -9.3125 44.5625 C-13.76661364 42.4526567 -16.50541449 40.18060742 -18.3125 35.5625 C-19.01352791 31.33508926 -19.43475243 27.37117867 -17.10546875 23.6171875 C-13.75974312 20.11052823 -10.99864522 18.70122252 -6.11425781 18.44897461 C-4.95168457 18.45682983 -4.95168457 18.45682983 -3.765625 18.46484375 C-2.92128906 18.46806641 -2.07695312 18.47128906 -1.20703125 18.47460938 C-0.33433594 18.48298828 0.53835938 18.49136719 1.4375 18.5 C2.32566406 18.50451172 3.21382813 18.50902344 4.12890625 18.51367188 C6.31517329 18.525426 8.50130179 18.54185751 10.6875 18.5625 C9.45663491 14.14775382 9.45663491 14.14775382 6.625 10.6875 C-0.48820201 7.96329497 -6.55807483 9.61511447 -13.3125 12.5625 C-15.41269634 10.29428795 -16.29842863 9.1394263 -16.375 6 C-13.62234581 -0.31491255 -5.96369113 -0.01758164 0 0 Z " fill="#121415" transform="translate(456.3125,522.4375)"/>
<path d="M0 0 C0.84433594 0.00241699 1.68867187 0.00483398 2.55859375 0.00732422 C8.33827178 0.17843311 12.42395529 1.04688545 17.09375 4.6640625 C21.195033 9.54941431 22.05580297 13.87058607 21.98046875 20.1484375 C21.97622391 20.85022125 21.97197906 21.552005 21.96760559 22.27505493 C21.95093599 24.4962756 21.91330872 26.71655788 21.875 28.9375 C21.85993788 30.45180973 21.84625216 31.96613381 21.83398438 33.48046875 C21.80107183 37.17477932 21.74937259 40.86854793 21.6875 44.5625 C18.0575 44.5625 14.4275 44.5625 10.6875 44.5625 C10.6875 43.5725 10.6875 42.5825 10.6875 41.5625 C9.78 42.0575 8.8725 42.5525 7.9375 43.0625 C1.65712663 45.74860674 -5.54008273 45.58391689 -11.875 43.25 C-15.33356722 40.85560731 -16.96768066 39.59695802 -18.3125 35.5625 C-18.83316445 32.12493132 -18.97700785 28.98604446 -18.3125 25.5625 C-15.63001627 21.96667731 -12.53256391 19.96918797 -8.3125 18.5625 C-6.83126453 18.4818378 -5.34667796 18.45488807 -3.86328125 18.46484375 C-3.01572266 18.46806641 -2.16816406 18.47128906 -1.29492188 18.47460938 C-0.41384766 18.48298828 0.46722656 18.49136719 1.375 18.5 C2.71401367 18.50676758 2.71401367 18.50676758 4.08007812 18.51367188 C6.28261987 18.52545017 8.48502599 18.54189836 10.6875 18.5625 C9.44771975 14.34330953 9.44771975 14.34330953 7.125 10.6875 C2.82524349 8.702997 -1.86238304 8.74422677 -6.34765625 10.2421875 C-8.01609454 10.98607718 -9.66563224 11.77200348 -11.3125 12.5625 C-12.3025 12.5625 -13.2925 12.5625 -14.3125 12.5625 C-15.47113079 10.10892891 -16.3125 8.17214304 -16.3125 5.4375 C-13.2493594 -0.30588862 -5.68226764 -0.01675197 0 0 Z " fill="#0F1212" transform="translate(567.3125,522.4375)"/>
<path d="M0 0 C5.54403366 3.46961047 9.03296091 7.62232023 11.109375 13.8515625 C11.109375 17.1515625 11.109375 20.4515625 11.109375 23.8515625 C-0.110625 23.8515625 -11.330625 23.8515625 -22.890625 23.8515625 C-19.09944093 31.46442537 -19.09944093 31.46442537 -15.890625 32.8515625 C-13.95601559 32.9744402 -12.01659596 33.02711138 -10.078125 33.0390625 C-9.04042969 33.05324219 -8.00273438 33.06742188 -6.93359375 33.08203125 C-3.84205974 32.84788426 -1.7118328 32.07326814 1.109375 30.8515625 C4.19494472 31.2145707 5.43443441 32.06826877 8.109375 33.8515625 C7.74991753 36.45762915 7.34150013 37.62803459 5.421875 39.4765625 C-1.88466072 43.82098915 -10.98116569 44.1423659 -19.1796875 42.3515625 C-25.25594254 39.99600988 -29.47121224 35.15471014 -32.15625 29.35546875 C-33.94205406 23.26663682 -34.06856141 16.43067697 -32.078125 10.3828125 C-25.64614169 -1.2304907 -12.05930482 -4.79112921 0 0 Z " fill="#219762" transform="translate(807.890625,524.1484375)"/>
<path d="M0 0 C-1.875 5.75 -1.875 5.75 -3 8 C-5.41744365 7.41981353 -7.70788325 6.75440785 -10.0625 5.9375 C-15.46654821 4.41178811 -21.67792358 3.82263575 -27.0390625 5.72265625 C-29.6881148 7.2731679 -30.87229495 8.53561802 -31.6875 11.5 C-30.69284591 15.11692397 -29.13328566 15.93370361 -26 18 C-21.91518945 19.50867567 -17.69179511 20.53133672 -13.48046875 21.62304688 C-7.69612975 23.21917651 -3.63443612 25.1503284 1 29 C3.09071372 33.18142744 2.43450877 38.44658613 2 43 C-0.39619642 47.87797128 -3.27443606 50.56047885 -8.01171875 53.0625 C-12.31028329 54.41106927 -16.39745323 54.28933423 -20.875 54.25 C-21.74769531 54.25773438 -22.62039063 54.26546875 -23.51953125 54.2734375 C-31.63251108 54.24903756 -37.4083663 52.82314661 -44 48 C-42.125 42.25 -42.125 42.25 -41 40 C-37.85472592 40.49144908 -35.43411607 41.25262675 -32.5 42.5625 C-26.47918575 44.88612223 -19.01363837 45.25832987 -12.83203125 43.3203125 C-11.04452797 42.47589712 -11.04452797 42.47589712 -9 41 C-8.58129447 38.66928121 -8.58129447 38.66928121 -9 36 C-12.79353419 32.17728478 -16.68584383 31.0546949 -21.8125 30 C-35.24903842 26.92844297 -35.24903842 26.92844297 -39.9375 21.9375 C-42.79290415 16.73058655 -42.63028833 11.01137759 -41.4375 5.3125 C-38.59414512 0.73840737 -34.7758176 -2.21864026 -29.875 -4.375 C-19.57565228 -6.03618512 -8.9217863 -5.94785753 0 0 Z " fill="#1F9863" transform="translate(640,513)"/>
<path d="M0 0 C3 0 3 0 4.54296875 1.36328125 C11.16432073 9.21139202 17.1923433 17.35567783 22.4375 26.1875 C23.09621094 27.29480469 23.75492187 28.40210938 24.43359375 29.54296875 C26.25059841 33.55306633 26.66142704 36.63670058 27 41 C20.75670613 43.60776403 14.43206448 45.97201716 8.0625 48.25 C7.31685791 48.52021973 6.57121582 48.79043945 5.80297852 49.06884766 C2.74826538 50.15124003 0.26576328 51 -3 51 C-3.35191406 50.18917969 -3.70382812 49.37835938 -4.06640625 48.54296875 C-7.10602814 41.72564445 -10.33234422 35.59157216 -14.58203125 29.4375 C-16.11778545 26.79752584 -16.88888697 25.0580238 -17 22 C-15.6640625 19.74609375 -15.6640625 19.74609375 -13.625 17.4375 C-11.17171069 14.57892212 -8.76794928 11.73957253 -6.56640625 8.68359375 C-6.16921387 8.13324463 -5.77202148 7.58289551 -5.36279297 7.01586914 C-4.23215444 5.43734368 -3.10621311 3.85545701 -1.98046875 2.2734375 C-1.32691406 1.52320313 -0.67335938 0.77296875 0 0 Z " fill="#1DAC65" transform="translate(419,439)"/>
<path d="M0 0 C0 3.78140879 -0.97458151 4.51916614 -3.375 7.375 C-6.83449101 11.56606796 -10.19851428 15.80949498 -13.5 20.125 C-13.94520996 20.70556152 -14.39041992 21.28612305 -14.84912109 21.88427734 C-15.90031752 23.25549276 -16.95029632 24.6276415 -18 26 C-18.99 25.34 -19.98 24.68 -21 24 C-21.40089844 24.47308594 -21.80179687 24.94617188 -22.21484375 25.43359375 C-26.15165571 30.01315052 -30.25935364 34.3262386 -34.59375 38.53125 C-36.5650235 40.55372541 -38.42111102 42.60609501 -40.26953125 44.73828125 C-44.78798242 49.94646106 -49.54814549 54.91654332 -54.30273438 59.90820312 C-57.11682858 62.87759463 -59.83970026 65.79518728 -62.36328125 69.01953125 C-62.90339844 69.67308594 -63.44351563 70.32664062 -64 71 C-64.66 71 -65.32 71 -66 71 C-66.28875 71.61875 -66.5775 72.2375 -66.875 72.875 C-68 75 -68 75 -70 77 C-70.05252394 79.27593061 -70.05252394 79.27593061 -69.8125 81.8125 C-69.73835716 85.75347698 -69.81717361 86.73113766 -72.125 90.125 C-76.32268262 92.8626191 -79.10043262 92.33035954 -83.875 91.5 C-84.57625 91.335 -85.2775 91.17 -86 91 C-87.32060179 87.03819462 -87.07238185 83.11772297 -87 79 C-87 77.68 -87 76.36 -87 75 C-89.60180895 78.00208724 -90.33177106 79.86321319 -90.4375 83.8125 C-90.89041237 89.63199673 -92.35357785 93.6943189 -96.8203125 97.5859375 C-98.0729118 98.58497419 -99.32674777 99.58246305 -100.58203125 100.578125 C-102.29190104 102.0123236 -102.29190104 102.0123236 -102.4375 104.875 C-102.2209375 105.926875 -102.2209375 105.926875 -102 107 C-103.65 106.01 -105.3 105.02 -107 104 C-105.46073405 100.13864142 -103.03309599 98.14113563 -99.9375 95.4375 C-96.13128118 91.75107634 -94.38004491 89.59136905 -94.125 84.25 C-94.12113281 83.33476563 -94.11726563 82.41953125 -94.11328125 81.4765625 C-93.88291807 76.44034673 -90.64322034 73.68916465 -87.375 70.1875 C-84.62130347 67.96229068 -82.62164748 67.7733073 -79.125 67.6875 C-74.75558888 67.45856379 -72.92264945 66.5126391 -69.875 63.375 C-68.58138756 61.91839239 -67.28969289 60.46007915 -66 59 C-64.72976439 57.8304538 -63.43801093 56.68381133 -62.125 55.5625 C-55.25080322 49.6378518 -48.55465351 43.51708944 -41.875 37.375 C-37.96015039 33.77600336 -34.0097238 30.226275 -29.9921875 26.7421875 C-27.63979365 24.68499601 -25.31965034 22.59403085 -23 20.5 C-19.39351727 17.24536924 -15.7570326 14.03020257 -12.09375 10.83984375 C-8.02704588 7.26630337 -4.01654397 3.6297047 0 0 Z " fill="#3B9E6C" transform="translate(410,440)"/>
<path d="M0 0 C-1.875 5.75 -1.875 5.75 -3 8 C-3.9075 7.67 -4.815 7.34 -5.75 7 C-11.00172176 5.49026479 -16.58849832 5.44160529 -22 6 C-22.66 6.66 -23.32 7.32 -24 8 C-24 9.32 -24 10.64 -24 12 C-20.84468404 13.52676579 -18.14037731 14.13007272 -14.6875 14.375 C-8.7145406 14.94243114 -4.40088501 17.37940262 0.5 20.6875 C2.87652184 24.35130451 2.82160897 27.77458243 2 32 C-0.81108416 36.89672724 -3.79303795 39.0077142 -9.20703125 40.53125 C-17.76058811 41.96681199 -27.31970108 42.45457337 -35 38 C-36.1875 35.5625 -36.1875 35.5625 -36 33 C-35.04439516 31.63449747 -34.04818879 30.29579244 -33 29 C-32.39414062 29.2165625 -31.78828125 29.433125 -31.1640625 29.65625 C-25.1166315 31.66585784 -19.38704128 32.90238932 -13 32 C-12.01 31.34 -11.02 30.68 -10 30 C-10 28.68 -10 27.36 -10 26 C-11.08539062 25.74605469 -12.17078125 25.49210938 -13.2890625 25.23046875 C-14.73446724 24.88319618 -16.17977465 24.53551836 -17.625 24.1875 C-18.33785156 24.02185547 -19.05070313 23.85621094 -19.78515625 23.68554688 C-25.03388159 22.40948062 -29.95272487 21.08190134 -33.84765625 17.12109375 C-35.94606174 13.25860501 -35.63548365 9.26188491 -35 5 C-32.94892412 1.60511578 -31.29515379 0.19676919 -28 -2 C-18.59069232 -4.07911048 -8.75536869 -4.20257697 0 0 Z " fill="#0E1010" transform="translate(542,526)"/>
<path d="M0 0 C3.60466487 1.72455824 6.27815336 3.76118244 8.26953125 7.24609375 C7.22629725 10.37579574 6.42688842 11.16216993 3.45703125 12.74609375 C2.40515625 12.91109375 1.35328125 13.07609375 0.26953125 13.24609375 C-0.45234375 12.62734375 -1.17421875 12.00859375 -1.91796875 11.37109375 C-5.69774383 8.51526369 -8.4893328 8.62493014 -13.12890625 8.78125 C-16.9151823 9.4577768 -18.53796001 11.17658152 -20.73046875 14.24609375 C-22.58316796 17.95149217 -22.19491364 22.20232688 -21.73046875 26.24609375 C-20.41929274 29.35936 -18.82437723 31.69913951 -15.73046875 33.24609375 C-11.05741915 33.67617973 -6.98695769 33.81023164 -2.66796875 31.87109375 C-0.63340725 30.38356876 -0.63340725 30.38356876 0.26953125 28.24609375 C3.24146975 29.37061102 5.60393812 30.46903166 8.26953125 32.24609375 C7.70444602 35.71948428 6.64309789 37.19616351 3.95703125 39.43359375 C3.36277344 39.94277344 2.76851562 40.45195313 2.15625 40.9765625 C-1.81109991 43.64610437 -5.92174964 43.43565866 -10.60546875 43.49609375 C-12.39597656 43.53476562 -12.39597656 43.53476562 -14.22265625 43.57421875 C-19.96921852 43.0366784 -23.72784806 40.79464548 -27.41796875 36.43359375 C-32.0520808 30.78448813 -34.40426068 26.30433714 -34.13671875 18.90234375 C-33.09396285 12.08432441 -30.00583504 6.85288514 -24.54296875 2.68359375 C-17.57392984 -2.02017439 -8.09489502 -2.23507116 0 0 Z " fill="#209863" transform="translate(680.73046875,523.75390625)"/>
<path d="M0 0 C3.63 0 7.26 0 11 0 C11.33 1.32 11.66 2.64 12 4 C12.639375 3.34 13.27875 2.68 13.9375 2 C18.20751756 -0.7885829 20.96587748 -0.30054463 26 0 C26 2.97 26 5.94 26 9 C24.5975 9.2475 23.195 9.495 21.75 9.75 C17.7367275 10.63342476 15.53579287 11.61894284 13 15 C11.63160637 17.73678725 11.78365182 20.04264424 11.68359375 23.1015625 C11.64169922 24.31328125 11.59980469 25.525 11.55664062 26.7734375 C11.51732422 28.04445313 11.47800781 29.31546875 11.4375 30.625 C11.39431641 31.90375 11.35113281 33.1825 11.30664062 34.5 C11.20030114 37.66655348 11.09827167 40.83318753 11 44 C7.37 44 3.74 44 0 44 C0 29.48 0 14.96 0 0 Z " fill="#269965" transform="translate(746,523)"/>
<path d="M0 0 C4.57842117 2.07433884 8.17262877 4.15701614 10 9 C10.72798272 13.65570345 10.42814156 17.14371687 8.3125 21.375 C5.39283876 24.68921006 3.32678284 26.65670417 -1.14453125 27.31640625 C-5.16872145 27.52328833 -7.4198702 27.34560924 -10.9375 25.25 C-15.33621096 20.45140623 -15.48350816 16.21022526 -15.390625 9.85546875 C-15 7 -15 7 -12.6875 3.875 C-7.97138074 0.58468424 -5.85011849 -0.67132507 0 0 Z " fill="#F6FBF9" transform="translate(719,531)"/>
<path d="M0 0 C8.56310874 6.22222363 16.51523755 18.07110858 18.75 28.5 C18.87375 29.7375 18.87375 29.7375 19 31 C18.34 31 17.68 31 17 31 C16.67 31.99 16.34 32.98 16 34 C14.2578125 34.94921875 14.2578125 34.94921875 12.125 35.6875 C11.42632812 35.93886719 10.72765625 36.19023437 10.0078125 36.44921875 C8 37 8 37 5 37 C4.64808594 36.18917969 4.29617188 35.37835938 3.93359375 34.54296875 C0.89397186 27.72564445 -2.33234422 21.59157216 -6.58203125 15.4375 C-8.08957633 12.84601755 -8.79453757 10.98898919 -9 8 C-6.49058647 4.343426 -4.22435427 1.56457565 0 0 Z " fill="#138A53" transform="translate(411,453)"/>
<path d="M0 0 C2.84625 -0.0825 5.6925 -0.165 8.625 -0.25 C9.51010254 -0.28641602 10.39520508 -0.32283203 11.30712891 -0.36035156 C16.71436474 -0.43580703 19.7013663 0.42882738 24 4 C26.35951179 6.35951179 26.34409415 7.01925635 26.4375 10.25 C26.36972492 13.75171226 25.89423943 15.76151613 23.6875 18.5 C20.34810606 21.60641297 18.16242332 22.12881151 13.76953125 22.09765625 C13.04612549 22.09515869 12.32271973 22.09266113 11.57739258 22.09008789 C10.66497803 22.08098389 9.75256348 22.07187988 8.8125 22.0625 C5.904375 22.041875 2.99625 22.02125 0 22 C0 14.74 0 7.48 0 0 Z " fill="#F8F8F8" transform="translate(396,518)"/>
<path d="M0 0 C3.3 0 6.6 0 10 0 C10 14.19 10 28.38 10 43 C6.7 43 3.4 43 0 43 C0 28.81 0 14.62 0 0 Z " fill="#090C0C" transform="translate(488,523)"/>
<path d="M0 0 C0.66 0.33 1.32 0.66 2 1 C1.03900391 2.25490234 1.03900391 2.25490234 0.05859375 3.53515625 C-9.51932034 16.30818377 -15.17224922 28.25160335 -18 44 C-18.33 44.99 -18.66 45.98 -19 47 C-19.22325814 49.05893621 -19.40705759 51.12233653 -19.5625 53.1875 C-19.64628906 54.27417969 -19.73007813 55.36085938 -19.81640625 56.48046875 C-19.87699219 57.31191406 -19.93757812 58.14335938 -20 59 C-20.66 58.67 -21.32 58.34 -22 58 C-22.75945355 41.57330092 -20.01514019 19.57143018 -10 6 C-7.96842707 4.56341567 -6.0890103 3.60574008 -3.76953125 2.71875 C-1.78833667 2.04768773 -1.78833667 2.04768773 0 0 Z " fill="#33685B" transform="translate(270,458)"/>
<path d="M0 0 C2.80331644 1.34373846 3.87696295 2.55850739 6 5 C6.33 6.98 6.66 8.96 7 11 C-0.92 11 -8.84 11 -17 11 C-16 5 -16 5 -13.5625 2.6875 C-9.00740481 -0.31219683 -5.40406001 -0.7979149 0 0 Z " fill="#F0F9F6" transform="translate(802,531)"/>
<path d="M0 0 C2.875 1.5625 2.875 1.5625 5 4 C5.625 7.4375 5.625 7.4375 5 11 C2.55804571 14.37564269 1.0769435 15.75320045 -3 16.6875 C-6.42905924 15.90167392 -8.06237136 14.62880414 -10.1484375 11.7890625 C-11.67373104 8.58454672 -11.04902601 6.27049287 -10 3 C-7.07633177 -0.35680426 -4.30565927 -0.61509418 0 0 Z " fill="#F4F9F7" transform="translate(335,516)"/>
<path d="M0 0 C1.76923828 0.01353516 1.76923828 0.01353516 3.57421875 0.02734375 C4.47785156 0.03894531 5.38148438 0.05054688 6.3125 0.0625 C6.72306352 4.25024791 6.76183686 6.39574208 4.375 9.9375 C0.40846691 12.68978827 -2.8773126 13.50611584 -7.6875 13.0625 C-10.75 11.4375 -10.75 11.4375 -12.6875 9.0625 C-13.1875 6.5 -13.1875 6.5 -12.6875 4.0625 C-9.35824404 -0.37650795 -5.17356034 -0.05122337 0 0 Z " fill="#EAEAEA" transform="translate(571.6875,546.9375)"/>
<path d="M0 0 C1.47668858 0.0133035 2.95331108 0.03716415 4.4296875 0.0703125 C5.18378906 0.07933594 5.93789063 0.08835937 6.71484375 0.09765625 C8.57826004 0.1212438 10.44151343 0.15711531 12.3046875 0.1953125 C12.5234375 5.9140625 12.5234375 5.9140625 10.5546875 8.4453125 C7.39593221 10.90212217 5.35794366 12.03844456 1.3671875 12.6328125 C-1.6953125 12.1953125 -1.6953125 12.1953125 -4.6328125 10.0078125 C-6.6953125 7.1953125 -6.6953125 7.1953125 -6.6328125 4.5078125 C-5.05556546 0.6172698 -4.26301154 0.22531773 0 0 Z " fill="#F0F0F0" transform="translate(454.6953125,547.8046875)"/>
<path d="M0 0 C0 3.78140879 -0.97458151 4.51916614 -3.375 7.375 C-6.83449101 11.56606796 -10.19851428 15.80949498 -13.5 20.125 C-13.94520996 20.70556152 -14.39041992 21.28612305 -14.84912109 21.88427734 C-15.90031752 23.25549276 -16.95029632 24.6276415 -18 26 C-18.99 25.34 -19.98 24.68 -21 24 C-21.65355469 24.77923828 -21.65355469 24.77923828 -22.3203125 25.57421875 C-25.95654106 29.83222666 -29.58574336 33.55472652 -34 37 C-34.66 36.01 -35.32 35.02 -36 34 C-30.60880555 27.55338654 -24.89011589 22.01506976 -18.46777344 16.63085938 C-12.11373154 11.29855567 -6.05212806 5.67010004 0 0 Z " fill="#2B9563" transform="translate(410,440)"/>
<path d="M0 0 C3.625 0.375 3.625 0.375 6.125 2 C7.625 4.375 7.625 4.375 7.5625 7.5 C6.625 10.375 6.625 10.375 3.625 12.375 C0.5374407 12.69662076 -1.51515561 12.86224515 -4.25 11.3125 C-5.99473477 8.30767901 -5.68335443 5.76689869 -5.375 2.375 C-3.375 0.375 -3.375 0.375 0 0 Z " fill="#0B0D0D" transform="translate(492.375,503.625)"/>
<path d="M0 0 C9.98169866 2.21815526 18.5609122 6.16514304 27.5 11.0625 C28.30228027 11.49820312 29.10456055 11.93390625 29.93115234 12.3828125 C30.68605957 12.80433594 31.4409668 13.22585938 32.21875 13.66015625 C32.89873047 14.03793213 33.57871094 14.41570801 34.27929688 14.80493164 C36 16 36 16 38 19 C34.49320976 17.65740031 31.11635629 16.12009765 27.73583984 14.48706055 C16.94662654 9.30062354 6.90975326 6.58672261 -5 5 C-4.360625 4.731875 -3.72125 4.46375 -3.0625 4.1875 C-0.66868314 3.11332248 -0.66868314 3.11332248 0 0 Z " fill="#555655" transform="translate(368,401)"/>
<path d="M0 0 C0.66 1.32 1.32 2.64 2 4 C0.25913805 6.29913836 -1.49193876 8.58907304 -3.25 10.875 C-3.74113281 11.52597656 -4.23226563 12.17695313 -4.73828125 12.84765625 C-5.22167969 13.47285156 -5.70507812 14.09804688 -6.203125 14.7421875 C-6.64301758 15.3182373 -7.08291016 15.89428711 -7.53613281 16.48779297 C-9.20135388 18.20800299 -10.81827678 19.0480496 -13 20 C-13 19.34 -13 18.68 -13 18 C-14.98 18.99 -14.98 18.99 -17 20 C-15.69311157 17.10455263 -14.31032308 15.07656883 -12.03125 12.87109375 C-11.46019531 12.31099609 -10.88914062 11.75089844 -10.30078125 11.17382812 C-9.70652344 10.60083984 -9.11226563 10.02785156 -8.5 9.4375 C-7.32065437 8.29269053 -6.14348348 7.14563543 -4.96875 5.99609375 C-4.44732422 5.49263428 -3.92589844 4.9891748 -3.38867188 4.47045898 C-1.7743892 2.84358092 -1.7743892 2.84358092 0 0 Z " fill="#24895B" transform="translate(389,463)"/>
<path d="M0 0 C0.33 0 0.66 0 1 0 C2.71671767 9.05178409 0.89232728 17.32301815 -2 26 C-2.22325814 28.05893621 -2.40705759 30.12233653 -2.5625 32.1875 C-2.64628906 33.27417969 -2.73007813 34.36085938 -2.81640625 35.48046875 C-2.87699219 36.31191406 -2.93757812 37.14335938 -3 38 C-3.66 37.67 -4.32 37.34 -5 37 C-5.59143865 24.207401 -3.33341011 12.30797579 0 0 Z " fill="#497068" transform="translate(253,479)"/>
<path d="M0 0 C0 5.8163521 -4.59030816 10.48028343 -8.40234375 14.58984375 C-10.57246503 16.75996503 -12.7639096 18.89807503 -15 21 C-15.99 20.01 -16.98 19.02 -18 18 C-12.37361021 11.50903494 -6.55902307 5.55113536 0 0 Z " fill="#2FA76B" transform="translate(392,456)"/>
<path d="M0 0 C0.33 0.99 0.66 1.98 1 3 C-0.28062485 4.7074998 -1.61767557 6.37373596 -3 8 C-3.33 8.99 -3.66 9.98 -4 11 C-5.15173411 12.15173411 -6.30755774 13.29968887 -7.484375 14.42578125 C-9.94166127 16.9780657 -12.00473642 19.8274954 -14.15234375 22.640625 C-16.95673467 26.2217077 -19.96476529 29.61419107 -23 33 C-23.66 32.67 -24.32 32.34 -25 32 C-14.52432432 18.63581081 -14.52432432 18.63581081 -9.6875 12.625 C-6.36343235 8.48533637 -3.15082467 4.27270921 0 0 Z " fill="#D6ECE4" transform="translate(386,472)"/>
<path d="M0 0 C0.66 0 1.32 0 2 0 C2.51751042 6.33950263 2.17761929 11.00371181 -2 16 C-3.81878917 17.58511176 -5.69212158 19.07909217 -7.58203125 20.578125 C-9.29190104 22.0123236 -9.29190104 22.0123236 -9.4375 24.875 C-9.293125 25.57625 -9.14875 26.2775 -9 27 C-10.65 26.01 -12.3 25.02 -14 24 C-12.67666656 20.60053865 -10.644004 18.61104937 -7.9621582 16.19262695 C-2.15123877 11.03127631 -2.15123877 11.03127631 0.1875 3.8125 C0.125625 2.554375 0.06375 1.29625 0 0 Z " fill="#427E69" transform="translate(317,520)"/>
<path d="M0 0 C1.65322266 0.01740234 1.65322266 0.01740234 3.33984375 0.03515625 C4.44457031 0.04417969 5.54929687 0.05320312 6.6875 0.0625 C7.54214844 0.07410156 8.39679688 0.08570313 9.27734375 0.09765625 C9.27734375 0.42765625 9.27734375 0.75765625 9.27734375 1.09765625 C8.23578125 1.29359375 7.19421875 1.48953125 6.12109375 1.69140625 C-3.58356037 3.66540816 -11.81544704 6.68925128 -20.52734375 11.390625 C-23.72265625 13.09765625 -23.72265625 13.09765625 -26.72265625 14.09765625 C-26.72265625 13.10765625 -26.72265625 12.11765625 -26.72265625 11.09765625 C-23.42287279 8.54782358 -20.71233012 7.06868799 -16.72265625 6.09765625 C-14.48450876 5.28875313 -12.25591854 4.45313467 -10.03515625 3.59765625 C-8.87628906 3.15421875 -7.71742188 2.71078125 -6.5234375 2.25390625 C-1.16502754 0.04178721 -1.16502754 0.04178721 0 0 Z " fill="#3A7E62" transform="translate(314.72265625,430.90234375)"/>
<path d="M0 0 C0.66 0 1.32 0 2 0 C1.40716379 3.39192363 0.23256811 5.2107757 -2.0625 7.75 C-2.61035156 8.36359375 -3.15820312 8.9771875 -3.72265625 9.609375 C-4.14417969 10.06828125 -4.56570313 10.5271875 -5 11 C-4.01 11.33 -3.02 11.66 -2 12 C-3.98 13.65 -5.96 15.3 -8 17 C-7.49396008 14.83125748 -7.00016187 13.00032373 -6 11 C-6.67546875 11.54269531 -7.3509375 12.08539063 -8.046875 12.64453125 C-9.38492187 13.71767578 -9.38492187 13.71767578 -10.75 14.8125 C-11.63171875 15.52019531 -12.5134375 16.22789062 -13.421875 16.95703125 C-15.58992929 18.67505002 -17.77728901 20.35373976 -20 22 C-20 21.01 -20 20.02 -20 19 C-17.91015625 17.01953125 -17.91015625 17.01953125 -15.0625 14.8125 C-11.25174257 11.79153685 -7.47705239 8.76023043 -3.8125 5.5625 C-3.07644531 4.92441406 -2.34039062 4.28632813 -1.58203125 3.62890625 C0.23223661 2.13933524 0.23223661 2.13933524 0 0 Z " fill="#DEF5EB" transform="translate(411,430)"/>
<path d="M0 0 C1.86032581 0.70552607 3.68364306 1.50739261 5.49609375 2.328125 C4.50609375 3.813125 4.50609375 3.813125 3.49609375 5.328125 C3.49609375 4.338125 3.49609375 3.348125 3.49609375 2.328125 C1.12038832 2.2465168 -1.25246466 2.18735278 -3.62890625 2.140625 C-4.2940625 2.11548828 -4.95921875 2.09035156 -5.64453125 2.06445312 C-10.35769402 1.99514191 -13.54135894 2.76696637 -17.50390625 5.328125 C-18.47297452 7.91226926 -18.47297452 7.91226926 -18.50390625 10.328125 C-19.16390625 9.998125 -19.82390625 9.668125 -20.50390625 9.328125 C-20.81640625 7.078125 -20.81640625 7.078125 -20.50390625 4.328125 C-14.51228043 -1.34815209 -7.94879546 -2.13290611 0 0 Z " fill="#C2E6D8" transform="translate(628.50390625,517.671875)"/>
<path d="M0 0 C1.2549347 0.5726401 2.50374378 1.15871055 3.75 1.75 C4.44609375 2.07484375 5.1421875 2.3996875 5.859375 2.734375 C8 4 8 4 12 8 C7.71 11.96 3.42 15.92 -1 20 C-1.33 19.01 -1.66 18.02 -2 17 C-1.02546875 16.07767578 -1.02546875 16.07767578 -0.03125 15.13671875 C0.8040625 14.32847656 1.639375 13.52023437 2.5 12.6875 C3.3353125 11.88699219 4.170625 11.08648437 5.03125 10.26171875 C7.32828283 8.12262518 7.32828283 8.12262518 7 5 C5.5459375 4.5978125 5.5459375 4.5978125 4.0625 4.1875 C3.051875 3.795625 2.04125 3.40375 1 3 C0.67 2.01 0.34 1.02 0 0 Z " fill="#45AC7B" transform="translate(400,424)"/>
<path d="M0 0 C4.95 0 9.9 0 15 0 C12 2 12 2 8.4375 1.4375 C4.87310652 1.27155989 3.99589077 2.0036533 1.25390625 4.44140625 C-1.30122116 7.18460256 -3.67275285 10.06232737 -6 13 C-6.33 11.68 -6.66 10.36 -7 9 C-6.34 9 -5.68 9 -5 9 C-5 8.01 -5 7.02 -5 6 C-4.01 6 -3.02 6 -2 6 C-1.34 4.02 -0.68 2.04 0 0 Z " fill="#3C7062" transform="translate(323,538)"/>
<path d="M0 0 C0.66 0.33 1.32 0.66 2 1 C-0.97 4.96 -0.97 4.96 -4 9 C3.26 9 10.52 9 18 9 C18 9.33 18 9.66 18 10 C10.08 10 2.16 10 -6 10 C-5 4 -5 4 -2.4375 1.625 C-1.633125 1.08875 -0.82875 0.5525 0 0 Z " fill="#A9D7C4" transform="translate(791,532)"/>
<path d="M0 0 C0.66 0.99 1.32 1.98 2 3 C2.66 2.01 3.32 1.02 4 0 C3.54177532 3.46941546 3.10868317 6.67395049 2 10 C1.77674186 12.05893621 1.59294241 14.12233653 1.4375 16.1875 C1.35371094 17.27417969 1.26992187 18.36085938 1.18359375 19.48046875 C1.12300781 20.31191406 1.06242188 21.14335938 1 22 C0.34 21.67 -0.32 21.34 -1 21 C-1.09733092 13.90565767 -1.10087193 7.01805857 0 0 Z " fill="#9DAFAC" transform="translate(249,495)"/>
<path d="M0 0 C0 3.95147647 -1.38419948 5.05315205 -3.875 8.0625 C-4.59429687 8.94035156 -5.31359375 9.81820313 -6.0546875 10.72265625 C-8 13 -8 13 -10 15 C-11.32 14.34 -12.64 13.68 -14 13 C-9.38 8.71 -4.76 4.42 0 0 Z " fill="#57A67F" transform="translate(410,440)"/>
<path d="M0 0 C1.21994269 3.65982807 0.49026663 4.58115302 -1 8 C-1 8.66 -1 9.32 -1 10 C-2.63064764 11.05771739 -4.30280873 12.05273046 -6 13 C-6.99 13.66 -7.98 14.32 -9 15 C-8.39889717 10.99264783 -6.33397972 8.44530629 -3.9375 5.25 C-2.83728516 3.77273438 -2.83728516 3.77273438 -1.71484375 2.265625 C-1.14894531 1.51796875 -0.58304687 0.7703125 0 0 Z " fill="#3A7160" transform="translate(272,446)"/>
<path d="M0 0 C0.66 0.33 1.32 0.66 2 1 C0.75 3.4375 0.75 3.4375 -1 6 C-3.125 6.625 -3.125 6.625 -5 7 C-5.33 7.99 -5.66 8.98 -6 10 C-9.96 10 -13.92 10 -18 10 C-18 9.67 -18 9.34 -18 9 C-17.3709375 9.020625 -16.741875 9.04125 -16.09375 9.0625 C-10.39668784 8.92522139 -7.43638053 8.06438667 -3.375 3.9375 C-2.22625596 2.64573052 -1.09249398 1.33967838 0 0 Z " fill="#5CA07F" transform="translate(344,499)"/>
<path d="M0 0 C0.57878906 0.21914063 1.15757812 0.43828125 1.75390625 0.6640625 C-0.13395284 2.15447757 -2.03027483 3.63112033 -3.93359375 5.1015625 C-4.72926758 5.73288086 -4.72926758 5.73288086 -5.54101562 6.37695312 C-8.73215125 8.82414302 -11.22157298 10.25339711 -15.24609375 10.6640625 C-12.39544738 7.63525074 -9.43354283 4.88902177 -6.18359375 2.2890625 C-5.53261719 1.76570313 -4.88164062 1.24234375 -4.2109375 0.703125 C-2.24609375 -0.3359375 -2.24609375 -0.3359375 0 0 Z " fill="#397A62" transform="translate(297.24609375,426.3359375)"/>
<path d="M0 0 C4.40035907 1.3038101 7.96040185 3.01273553 11.8125 5.5 C12.76769531 6.1084375 13.72289062 6.716875 14.70703125 7.34375 C17 9 17 9 18 11 C13.63221913 9.32073668 9.41834992 7.36694083 5.1875 5.375 C4.49462891 5.05015625 3.80175781 4.7253125 3.08789062 4.390625 C1.39133977 3.59500115 -0.30441165 2.79767301 -2 2 C-1.34 1.34 -0.68 0.68 0 0 Z " fill="#747574" transform="translate(388,409)"/>
<path d="M0 0 C2.64 0.66 5.28 1.32 8 2 C7.01 2.495 7.01 2.495 6 3 C6.33 3.99 6.66 4.98 7 6 C3.04 5.67 -0.92 5.34 -5 5 C-3.68 4.34 -2.36 3.68 -1 3 C-0.67 2.01 -0.34 1.02 0 0 Z " fill="#6C6C6B" transform="translate(368,401)"/>
<path d="M0 0 C0.66 0.33 1.32 0.66 2 1 C-2.62 5.62 -7.24 10.24 -12 15 C-12.66 14.67 -13.32 14.34 -14 14 C-9.61932717 8.89662734 -5.32423478 4.12628195 0 0 Z " fill="#D5E6E1" transform="translate(283,448)"/>
<path d="M0 0 C0.66 0.66 1.32 1.32 2 2 C-1.3 2 -4.6 2 -8 2 C-8 2.66 -8 3.32 -8 4 C-9.95927063 5.7143618 -11.95880212 7.38405168 -14 9 C-14 6 -14 6 -11.625 3.375 C-7.62462621 -0.24438581 -5.3671304 -0.28752484 0 0 Z " fill="#C2E5D8" transform="translate(719,531)"/>
<path d="M0 0 C0 0.33 0 0.66 0 1 C-0.88751953 1.185625 -0.88751953 1.185625 -1.79296875 1.375 C-6.67585712 2.64948962 -9.36848455 3.78831291 -12.0625 8.1875 C-12.73509719 9.44437353 -13.39080569 10.71120198 -14 12 C-14.60546875 10.1953125 -14.60546875 10.1953125 -15 8 C-13.38039096 5.000724 -11.92000366 2.69793381 -9.1875 0.625 C-6.09681682 -0.25805234 -3.1927746 -0.12279902 0 0 Z " fill="#BFE3D4" transform="translate(772,532)"/>
<path d="M0 0 C2.97 0 5.94 0 9 0 C9 0.33 9 0.66 9 1 C7.329375 1.4021875 7.329375 1.4021875 5.625 1.8125 C1.78159049 2.65809019 1.78159049 2.65809019 0 6 C0.25110098 8.34360915 0.58565749 10.67968195 1 13 C1 13.99 1 14.98 1 16 C0.34 16 -0.32 16 -1 16 C-2.28613129 12.14160613 -2.46346074 8.02189655 -2 4 C-1.34 2.68 -0.68 1.36 0 0 Z " fill="#528D75" transform="translate(325,515)"/>
<path d="M0 0 C0 3 0 3 -1 5 C-1.66 5 -2.32 5 -3 5 C-3.268125 5.61875 -3.53625 6.2375 -3.8125 6.875 C-5 9 -5 9 -8 11 C-8.99 10.67 -9.98 10.34 -11 10 C-5.555 5.05 -5.555 5.05 0 0 Z " fill="#4BA777" transform="translate(360,485)"/>
<path d="M0 0 C1.41377341 2.63904371 2.37240135 5.07120629 3 8 C3.66 8 4.32 8 5 8 C5 8.99 5 9.98 5 11 C5.66 11 6.32 11 7 11 C6.67 12.32 6.34 13.64 6 15 C4.79428464 13.45151269 3.61097826 11.88555794 2.4375 10.3125 C1.77621094 9.44238281 1.11492187 8.57226562 0.43359375 7.67578125 C-1 5 -1 5 -0.71484375 2.16796875 C-0.47894531 1.45253906 -0.24304688 0.73710937 0 0 Z " fill="#378C67" transform="translate(403,460)"/>
<path d="M0 0 C-1.40844718 3.21524305 -3.10344786 5.32183868 -5.625 7.75 C-6.57246094 8.67039062 -6.57246094 8.67039062 -7.5390625 9.609375 C-8.02117187 10.06828125 -8.50328125 10.5271875 -9 11 C-9.33 10.01 -9.66 9.02 -10 8 C-8.71451591 6.66070495 -7.42141845 5.32871357 -6.125 4 C-5.04605469 2.88625 -5.04605469 2.88625 -3.9453125 1.75 C-2 0 -2 0 0 0 Z " fill="#3DA973" transform="translate(408,433)"/>
<path d="M0 0 C0.70189453 0.00451172 1.40378906 0.00902344 2.12695312 0.01367188 C3.85550538 0.02543073 5.58401365 0.04336546 7.3125 0.0625 C7.3125 0.3925 7.3125 0.7225 7.3125 1.0625 C4.89624679 1.39909249 2.47957192 1.73188388 0.0625 2.0625 C-0.61941406 2.15789063 -1.30132813 2.25328125 -2.00390625 2.3515625 C-5.28121988 2.7970226 -8.37134153 3.0625 -11.6875 3.0625 C-9.53214726 -1.24820549 -4.20651089 -0.05105942 0 0 Z " fill="#C3E7D8" transform="translate(712.6875,521.9375)"/>
<path d="M0 0 C2.79192205 -0.05380578 5.5828141 -0.09357669 8.375 -0.125 C9.1690625 -0.14175781 9.963125 -0.15851562 10.78125 -0.17578125 C12.85492015 -0.19335473 14.92883241 -0.10335168 17 0 C17.66 0.66 18.32 1.32 19 2 C18.67 2.99 18.34 3.98 18 5 C16.88625 4.2884375 16.88625 4.2884375 15.75 3.5625 C10.89539916 1.07656914 5.34522062 1.2508275 0 1 C0 0.67 0 0.34 0 0 Z " fill="#BCE2D3" transform="translate(666,522)"/>
<path d="M0 0 C0.99 0.33 1.98 0.66 3 1 C-0.3 4.63 -3.6 8.26 -7 12 C-7.66 11.67 -8.32 11.34 -9 11 C-6.03 7.37 -3.06 3.74 0 0 Z " fill="#E0EEE9" transform="translate(370,493)"/>
<path d="M0 0 C0 3.62875867 -1.22793994 5.01739353 -3.5546875 7.703125 C-5.55721506 9.49998757 -7.35337395 9.84876423 -10 10 C-6.66666667 6.66666667 -3.33333333 3.33333333 0 0 Z " fill="#4CAE7A" transform="translate(371,475)"/>
<path d="M0 0 C0 4.10589421 -1.42485131 5.8680624 -4 9 C-6.75 9.375 -6.75 9.375 -9 9 C-6 6 -3 3 0 0 Z " fill="#4CB17F" transform="translate(392,456)"/>
<path d="M0 0 C1.48046875 1.12109375 1.48046875 1.12109375 3 3 C3.36328125 5.84765625 3.36328125 5.84765625 3.3125 9.0625 C3.30863281 10.12597656 3.30476562 11.18945312 3.30078125 12.28515625 C3 15 3 15 1 17 C1.01740234 16.03900391 1.01740234 16.03900391 1.03515625 15.05859375 C1.08883119 9.91346778 0.88169578 5.06975076 0 0 Z " fill="#3F9C74" transform="translate(639,541)"/>
<path d="M0 0 C4.22654744 0.46961638 6.09919954 0.96734498 9 4 C10.32 4 11.64 4 13 4 C13 4.66 13 5.32 13 6 C6.60655738 6.49180328 6.60655738 6.49180328 3.6875 4.125 C3.130625 3.42375 2.57375 2.7225 2 2 C1.34 1.34 0.68 0.68 0 0 Z " fill="#DAF2E8" transform="translate(672,532)"/>
<path d="M0 0 C0.515625 0.433125 1.03125 0.86625 1.5625 1.3125 C4.582386 3.40319031 7.5958835 4.62526065 11 6 C7.82127065 7.39864092 6.69888978 6.89282517 3.3125 5.6875 C0 4 0 4 -1 2 C-0.67 1.34 -0.34 0.68 0 0 Z " fill="#DAF2E9" transform="translate(611,526)"/>
<path d="M0 0 C-2 1.33333333 -4 2.66666667 -6 4 C-6.72965366 6.56282742 -6.72965366 6.56282742 -7 9 C-7.66 8.67 -8.32 8.34 -9 8 C-9.22223194 5.25913944 -9.34781139 3.56036279 -7.875 1.1875 C-5.22464043 -0.49106106 -3.06753576 -0.20450238 0 0 Z " fill="#CDEBE0" transform="translate(617,519)"/>
<path d="M0 0 C0.33 0.66 0.66 1.32 1 2 C0.0625 4.625 0.0625 4.625 -1 7 C-1.66 7 -2.32 7 -3 7 C-3 9.97 -3 12.94 -3 16 C-3.33 16 -3.66 16 -4 16 C-4.47617251 9.30713088 -4.39973696 5.22468764 0 0 Z " fill="#72A28F" transform="translate(320,513)"/>
<path d="M0 0 C3.00617269 3.00617269 2.59585316 5.82381598 3 10 C1.02 10.66 -0.96 11.32 -3 12 C-2.67 11.01 -2.34 10.02 -2 9 C-1.01 9 -0.02 9 1 9 C0.67 6.03 0.34 3.06 0 0 Z " fill="#4CAF80" transform="translate(443,470)"/>
<path d="M0 0 C0.33 0.99 0.66 1.98 1 3 C-0.65 4.65 -2.3 6.3 -4 8 C-4 6.68 -4 5.36 -4 4 C-4.66 3.67 -5.32 3.34 -6 3 C-3.8614515 0.8614515 -2.86724686 0.57344937 0 0 Z " fill="#369A6B" transform="translate(399,453)"/>
<path d="M0 0 C1.670625 0.061875 1.670625 0.061875 3.375 0.125 C3.375 0.455 3.375 0.785 3.375 1.125 C1.725 1.125 0.075 1.125 -1.625 1.125 C-1.625 1.785 -1.625 2.445 -1.625 3.125 C-2.285 3.125 -2.945 3.125 -3.625 3.125 C-3.625 4.775 -3.625 6.425 -3.625 8.125 C-4.615 8.62 -4.615 8.62 -5.625 9.125 C-5.75 5.75 -5.75 5.75 -5.625 2.125 C-3.625 0.125 -3.625 0.125 0 0 Z " fill="#272828" transform="translate(492.625,503.875)"/>
<path d="M0 0 C2.5 2.25 2.5 2.25 5 5 C5 6.32 5 7.64 5 9 C4.34 9 3.68 9 3 9 C3 8.01 3 7.02 3 6 C2.34 6 1.68 6 1 6 C-0.0625 4.125 -0.0625 4.125 -1 2 C-0.67 1.34 -0.34 0.68 0 0 Z " fill="#3D3C3C" transform="translate(263,574)"/>
<path d="M0 0 C4.8 2.46153846 4.8 2.46153846 5.8125 5.1875 C5.874375 5.785625 5.93625 6.38375 6 7 C5.01 7.66 4.02 8.32 3 9 C2.01 6.03 1.02 3.06 0 0 Z " fill="#3E9C73" transform="translate(683,526)"/>
<path d="M0 0 C0.66 0.66 1.32 1.32 2 2 C-2.75 6 -2.75 6 -5 6 C-5 6.66 -5 7.32 -5 8 C-5.66 7.67 -6.32 7.34 -7 7 C-2.25 1.125 -2.25 1.125 0 0 Z " fill="#399D72" transform="translate(657,526)"/>
<path d="M0 0 C0 0.33 0 0.66 0 1 C-0.928125 1.268125 -1.85625 1.53625 -2.8125 1.8125 C-6.75968421 3.28301961 -8.20808071 4.5412013 -10.1875 8.1875 C-10.455625 8.785625 -10.72375 9.38375 -11 10 C-10.51644989 3.59296098 -10.51644989 3.59296098 -8.3125 1.0625 C-5.40913094 -0.27148038 -3.15869424 -0.21536552 0 0 Z " fill="#D1E8E0" transform="translate(335,516)"/>
<path d="M0 0 C2.96175123 0.61277612 4.38058783 1.25372522 7 3 C6.625 4.9375 6.625 4.9375 6 7 C5.01 7.495 5.01 7.495 4 8 C3.67 6.02 3.34 4.04 3 2 C2.01 1.67 1.02 1.34 0 1 C0 0.67 0 0.34 0 0 Z " fill="#3C9970" transform="translate(809,555)"/>
<path d="M0 0 C6.56756757 1.45945946 6.56756757 1.45945946 8.5 3.875 C9.06976385 6.29649638 8.82945822 7.67751698 8 10 C7.4225 9.0925 6.845 8.185 6.25 7.25 C4.33214884 4.47977054 2.45597155 2.28054501 0 0 Z " fill="#DBF2E9" transform="translate(809,525)"/>
<path d="M0 0 C0.99 0.33 1.98 0.66 3 1 C0.03 3.64 -2.94 6.28 -6 9 C-6 5.06368636 -4.57142871 3.87394974 -2 1 C-1.34 0.67 -0.68 0.34 0 0 Z " fill="#3C7661" transform="translate(279,449)"/>
<path d="M0 0 C0.66 0.66 1.32 1.32 2 2 C1.04882866 3.1725131 0.08882991 4.33787015 -0.875 5.5 C-1.40867187 6.1496875 -1.94234375 6.799375 -2.4921875 7.46875 C-2.98976563 7.9740625 -3.48734375 8.479375 -4 9 C-4.66 9 -5.32 9 -6 9 C-4.47291037 5.56404834 -2.40072955 2.88087546 0 0 Z " fill="#D9F0E7" transform="translate(409,443)"/>
<path d="M0 0 C2.9719385 1.12451727 5.33440687 2.22293791 8 4 C7.67 4.99 7.34 5.98 7 7 C7 6.34 7 5.68 7 5 C4.36 4.34 1.72 3.68 -1 3 C-0.67 2.01 -0.34 1.02 0 0 Z " fill="#3E9B74" transform="translate(681,552)"/>
<path d="M0 0 C0.99 0.33 1.98 0.66 3 1 C3.6875 3.8125 3.6875 3.8125 4 7 C2.5625 8.875 2.5625 8.875 1 10 C1.020625 8.906875 1.04125 7.81375 1.0625 6.6875 C1.18544452 3.05615809 1.18544452 3.05615809 0 0 Z " fill="#2E2E2E" transform="translate(496,505)"/>
<path d="M0 0 C0.99 0 1.98 0 3 0 C4.38671875 1.53125 4.38671875 1.53125 5.6875 3.5 C6.12449219 4.1496875 6.56148438 4.799375 7.01171875 5.46875 C7.33785156 5.9740625 7.66398437 6.479375 8 7 C7.46375 6.71125 6.9275 6.4225 6.375 6.125 C3.64719516 4.83288192 0.87387282 3.91441408 -2 3 C-1.34 2.01 -0.68 1.02 0 0 Z " fill="#49AD7E" transform="translate(419,439)"/>
<path d="M0 0 C0.33 0 0.66 0 1 0 C1.25 2.3125 1.25 2.3125 1 5 C-1.04424538 6.97610386 -2.1176825 8 -5 8 C-4.1875 6.0625 -4.1875 6.0625 -3 4 C-2.01 3.67 -1.02 3.34 0 3 C0 2.01 0 1.02 0 0 Z " fill="#C7EBDC" transform="translate(631,549)"/>
<path d="M0 0 C3.16717283 1.58358642 4.73268318 2.45263699 6.3125 5.6875 C6.539375 6.450625 6.76625 7.21375 7 8 C5.0625 7.25 5.0625 7.25 3 6 C2.25 3.875 2.25 3.875 2 2 C1.34 2 0.68 2 0 2 C0 1.34 0 0.68 0 0 Z " fill="#46A078" transform="translate(730,527)"/>
<path d="M0 0 C0.33 0 0.66 0 1 0 C1.29344873 4.98862849 1.05887078 7.96229058 -2 12 C-2.33 12 -2.66 12 -3 12 C-3 10.35 -3 8.7 -3 7 C-2.01 6.67 -1.02 6.34 0 6 C0 4.02 0 2.04 0 0 Z " fill="#4B7F6D" transform="translate(347,522)"/>
<path d="M0 0 C1.32 0.33 2.64 0.66 4 1 C0.535 3.97 0.535 3.97 -3 7 C-1.125 1.125 -1.125 1.125 0 0 Z " fill="#4A8D70" transform="translate(323,510)"/>
<path d="M0 0 C0.33 0 0.66 0 1 0 C1.08131463 1.43655854 1.13933559 2.8744483 1.1875 4.3125 C1.22230469 5.11300781 1.25710938 5.91351562 1.29296875 6.73828125 C0.93801608 9.47851584 0.10633718 10.29171079 -2 12 C-2.33 11.01 -2.66 10.02 -3 9 C-2.67 8.34 -2.34 7.68 -2 7 C-1.34 7 -0.68 7 0 7 C0 4.69 0 2.38 0 0 Z " fill="#494A4B" transform="translate(543,549)"/>
<path d="M0 0 C0.99 0.33 1.98 0.66 3 1 C1.07423885 3.43929746 -0.80090595 5.80090595 -3 8 C-3.1875 5.125 -3.1875 5.125 -3 2 C-2.01 1.34 -1.02 0.68 0 0 Z " fill="#D9F1E8" transform="translate(697,528)"/>
<path d="M0 0 C2.31 0 4.62 0 7 0 C4.04816899 2.95183101 1.04488053 3.08663988 -3 4 C-3 3.34 -3 2.68 -3 2 C-2.01 2 -1.02 2 0 2 C0 1.34 0 0.68 0 0 Z " fill="#359E6C" transform="translate(431,482)"/>
<path d="M0 0 C2.74277578 3.19990508 4.6302836 6.00499382 6 10 C5.34 10 4.68 10 4 10 C4 9.34 4 8.68 4 8 C3.34 8 2.68 8 2 8 C2 6.68 2 5.36 2 4 C1.34 4 0.68 4 0 4 C0 2.68 0 1.36 0 0 Z " fill="#44AD7B" transform="translate(436,458)"/>
<path d="M0 0 C4.75 0.875 4.75 0.875 7 2 C7 2.66 7 3.32 7 4 C5.35 4 3.7 4 2 4 C2 3.34 2 2.68 2 2 C1.34 2 0.68 2 0 2 C0 1.34 0 0.68 0 0 Z " fill="#646564" transform="translate(381,406)"/>
<path d="M0 0 C0.99 0.33 1.98 0.66 3 1 C5.26415094 6.20754717 5.26415094 6.20754717 4 10 C2.68 6.7 1.36 3.4 0 0 Z " fill="#2B8960" transform="translate(411,477)"/>
<path d="M0 0 C0.66 0.33 1.32 0.66 2 1 C1.19152271 2.16945792 0.37810888 3.33550461 -0.4375 4.5 C-0.88996094 5.1496875 -1.34242188 5.799375 -1.80859375 6.46875 C-2.20175781 6.9740625 -2.59492188 7.479375 -3 8 C-3.33 8 -3.66 8 -4 8 C-4.25 5.6875 -4.25 5.6875 -4 3 C-2 1.1875 -2 1.1875 0 0 Z " fill="#38705D" transform="translate(270,458)"/>
<path d="M0 0 C0.33 1.32 0.66 2.64 1 4 C-0.75 5.5625 -0.75 5.5625 -3 7 C-5.25 6.6875 -5.25 6.6875 -7 6 C-6.21625 5.566875 -5.4325 5.13375 -4.625 4.6875 C-1.78301625 3.10779753 -1.78301625 3.10779753 0 0 Z " fill="#3E9F73" transform="translate(727,551)"/>
<path d="M0 0 C1.32 0.33 2.64 0.66 4 1 C2.02 1.99 2.02 1.99 0 3 C0 3.66 0 4.32 0 5 C-0.99 4.67 -1.98 4.34 -3 4 C-2.01 2.68 -1.02 1.36 0 0 Z " fill="#272829" transform="translate(444,542)"/>
<path d="M0 0 C0.66 0.66 1.32 1.32 2 2 C0.02 3.32 -1.96 4.64 -4 6 C-4.66 5.67 -5.32 5.34 -6 5 C-3.375 1.125 -3.375 1.125 0 0 Z " fill="#278A60" transform="translate(410,454)"/>
<path d="M0 0 C0.66 0.33 1.32 0.66 2 1 C-0.31 3.31 -2.62 5.62 -5 8 C-5.66 7.34 -6.32 6.68 -7 6 C-4.69 4.02 -2.38 2.04 0 0 Z " fill="#D4EDE3" transform="translate(397,444)"/>
</svg>
